<?xml version="1.0" encoding="UTF-8" standalone="no"?>
<!DOCTYPE svg PUBLIC "-//W3C//DTD SVG 1.1//EN"
 "http://www.w3.org/Graphics/SVG/1.1/DTD/svg11.dtd">
<!-- Generated by graphviz version 2.40.1 (20161225.0304)
 -->
<!-- Title: snakemake_dag Pages: 1 -->
<svg width="220pt" height="188pt"
 viewBox="0.00 0.00 219.60 188.00" xmlns="http://www.w3.org/2000/svg" xmlns:xlink="http://www.w3.org/1999/xlink">
<g id="graph0" class="graph" transform="scale(1 1) rotate(0) translate(4 184)">
<title>snakemake_dag</title>
<polygon fill="#ffffff" stroke="transparent" points="-4,4 -4,-184 215.6006,-184 215.6006,4 -4,4"/>
<!-- 0 -->
<g id="node1" class="node">
<title>0</title>
<path fill="none" stroke="#d85656" stroke-width="2" d="M120.3003,-36C120.3003,-36 90.3003,-36 90.3003,-36 84.3003,-36 78.3003,-30 78.3003,-24 78.3003,-24 78.3003,-12 78.3003,-12 78.3003,-6 84.3003,0 90.3003,0 90.3003,0 120.3003,0 120.3003,0 126.3003,0 132.3003,-6 132.3003,-12 132.3003,-12 132.3003,-24 132.3003,-24 132.3003,-30 126.3003,-36 120.3003,-36"/>
<text text-anchor="middle" x="105.3003" y="-15" font-family="sans" font-size="10.00" fill="#000000">all</text>
</g>
<!-- 1 -->
<g id="node2" class="node">
<title>1</title>
<path fill="none" stroke="#56d8a9" stroke-width="2" d="M84.4017,-108C84.4017,-108 12.1989,-108 12.1989,-108 6.1989,-108 .1989,-102 .1989,-96 .1989,-96 .1989,-84 .1989,-84 .1989,-78 6.1989,-72 12.1989,-72 12.1989,-72 84.4017,-72 84.4017,-72 90.4017,-72 96.4017,-78 96.4017,-84 96.4017,-84 96.4017,-96 96.4017,-96 96.4017,-102 90.4017,-108 84.4017,-108"/>
<text text-anchor="middle" x="48.3003" y="-87" font-family="sans" font-size="10.00" fill="#000000">run_correct_count</text>
</g>
<!-- 1&#45;&gt;0 -->
<g id="edge1" class="edge">
<title>1&#45;&gt;0</title>
<path fill="none" stroke="#c0c0c0" stroke-width="2" d="M62.6838,-71.8314C69.2489,-63.5386 77.151,-53.557 84.3581,-44.4533"/>
<polygon fill="#c0c0c0" stroke="#c0c0c0" stroke-width="2" points="87.2602,-46.4262 90.7231,-36.4133 81.7719,-42.0813 87.2602,-46.4262"/>
</g>
<!-- 2 -->
<g id="node3" class="node">
<title>2</title>
<path fill="none" stroke="#56d8a9" stroke-width="2" d="M199.4017,-108C199.4017,-108 127.1989,-108 127.1989,-108 121.1989,-108 115.1989,-102 115.1989,-96 115.1989,-96 115.1989,-84 115.1989,-84 115.1989,-78 121.1989,-72 127.1989,-72 127.1989,-72 199.4017,-72 199.4017,-72 205.4017,-72 211.4017,-78 211.4017,-84 211.4017,-84 211.4017,-96 211.4017,-96 211.4017,-102 205.4017,-108 199.4017,-108"/>
<text text-anchor="middle" x="163.3003" y="-87" font-family="sans" font-size="10.00" fill="#000000">run_correct_count</text>
</g>
<!-- 2&#45;&gt;0 -->
<g id="edge2" class="edge">
<title>2&#45;&gt;0</title>
<path fill="none" stroke="#c0c0c0" stroke-width="2" d="M148.6644,-71.8314C141.9842,-63.5386 133.9434,-53.557 126.6099,-44.4533"/>
<polygon fill="#c0c0c0" stroke="#c0c0c0" stroke-width="2" points="129.1322,-42.0052 120.1332,-36.4133 123.6809,-46.3965 129.1322,-42.0052"/>
</g>
<!-- 3 -->
<g id="node4" class="node">
<title>3</title>
<path fill="none" stroke="#afd856" stroke-width="2" d="M69.3827,-180C69.3827,-180 27.2179,-180 27.2179,-180 21.2179,-180 15.2179,-174 15.2179,-168 15.2179,-168 15.2179,-156 15.2179,-156 15.2179,-150 21.2179,-144 27.2179,-144 27.2179,-144 69.3827,-144 69.3827,-144 75.3827,-144 81.3827,-150 81.3827,-156 81.3827,-156 81.3827,-168 81.3827,-168 81.3827,-174 75.3827,-180 69.3827,-180"/>
<text text-anchor="middle" x="48.3003" y="-164" font-family="sans" font-size="10.00" fill="#000000">run_kallisto</text>
<text text-anchor="middle" x="48.3003" y="-154" font-family="sans" font-size="10.00" fill="#000000">sample: A</text>
</g>
<!-- 3&#45;&gt;1 -->
<g id="edge3" class="edge">
<title>3&#45;&gt;1</title>
<path fill="none" stroke="#c0c0c0" stroke-width="2" d="M48.3003,-143.8314C48.3003,-136.131 48.3003,-126.9743 48.3003,-118.4166"/>
<polygon fill="#c0c0c0" stroke="#c0c0c0" stroke-width="2" points="51.8004,-118.4132 48.3003,-108.4133 44.8004,-118.4133 51.8004,-118.4132"/>
</g>
<!-- 4 -->
<g id="node5" class="node">
<title>4</title>
<path fill="none" stroke="#afd856" stroke-width="2" d="M184.3827,-180C184.3827,-180 142.2179,-180 142.2179,-180 136.2179,-180 130.2179,-174 130.2179,-168 130.2179,-168 130.2179,-156 130.2179,-156 130.2179,-150 136.2179,-144 142.2179,-144 142.2179,-144 184.3827,-144 184.3827,-144 190.3827,-144 196.3827,-150 196.3827,-156 196.3827,-156 196.3827,-168 196.3827,-168 196.3827,-174 190.3827,-180 184.3827,-180"/>
<text text-anchor="middle" x="163.3003" y="-164" font-family="sans" font-size="10.00" fill="#000000">run_kallisto</text>
<text text-anchor="middle" x="163.3003" y="-154" font-family="sans" font-size="10.00" fill="#000000">sample: B</text>
</g>
<!-- 4&#45;&gt;2 -->
<g id="edge4" class="edge">
<title>4&#45;&gt;2</title>
<path fill="none" stroke="#c0c0c0" stroke-width="2" d="M163.3003,-143.8314C163.3003,-136.131 163.3003,-126.9743 163.3003,-118.4166"/>
<polygon fill="#c0c0c0" stroke="#c0c0c0" stroke-width="2" points="166.8004,-118.4132 163.3003,-108.4133 159.8004,-118.4133 166.8004,-118.4132"/>
</g>
</g>
</svg>
